<?xml version="1.0" encoding="utf-8"?>
<!-- Uploaded to: SVG Repo, www.svgrepo.com, Generator: SVG Repo Mixer Tools -->
<svg width="800px" height="800px" viewBox="-11.35 0 355.015 355.015" xmlns="http://www.w3.org/2000/svg"><defs><style>.a{fill:#a98a75;}.b{fill:#211715;}.c{fill:#ffffff;}.d{fill:#7abee6;}.e{fill:#ffda71;}</style></defs><path class="a" d="M283.294,8.326a29.033,29.033,0,0,0-19.087-6.3c-9.936.156-18.044,3.716-23.6,9.83a30.521,30.521,0,0,0-6.621,13.417,48.558,48.558,0,0,0-.23,16.671l42.524,44.337h15.968c5.288-2.137,5.567-5.7,5.725-7.846a23.863,23.863,0,0,0-.852-8.482c-.961-3.779-2.69-11.436-1.731-24.784a64.333,64.333,0,0,0,.746-8.441c.045-1.317.063-2.432.069-3.163.079-7.477-3.15-16.112-8-21.128Z"/><path class="b" d="M286.788,13.853a28.869,28.869,0,0,1,6.949,14.5c1.052,5.54.239,11.285-.352,16.823a75.976,75.976,0,0,0,.228,16.717c.411,3.481,1.231,6.8,1.958,10.216a21.19,21.19,0,0,1,.463,5.16c-.02.595-.063,1.189-.115,1.783-.014.156-.028.314-.05.469.053-.378-.063.3-.079.374a6.321,6.321,0,0,1-4.079,4.464,2.068,2.068,0,0,0-1.4,2.46,2.011,2.011,0,0,0,2.46,1.4c2.463-1.036,4.786-2.491,6.038-4.949a13.767,13.767,0,0,0,1.213-5.769c.2-4.614-1.383-8.955-2.11-13.454a77.864,77.864,0,0,1-.7-16c.289-6.238,1.529-12.412.705-18.677a33.049,33.049,0,0,0-8.3-18.342c-1.776-1.87-4.6.961-2.828,2.828Z"/><path class="c" d="M239.061,79.925c-6.477,2.305-10.545,3.346-14.925,7.5v83.392h81.121a34.824,34.824,0,0,0,2.989-5.612c3.454-8.482,4.026-30.222,3.767-39.6l-.04.259c-.41-11.269-1.614-23.392-8.411-33.334-3.472-5.078-12.665-11.3-19.119-12.895-7.283,7.688-17.884,10.45-27.883,9.791A26.265,26.265,0,0,1,246.7,87a16.064,16.064,0,0,1-7.6-7"/><path class="c" d="M301.04,334.864a6.462,6.462,0,0,0-2.486-4.014l-8.875,4.375a19.036,19.036,0,0,0-10.579-7.851,19.615,19.615,0,0,0-10.9-.234,15.876,15.876,0,0,0-5.379,2.766l-.355.153a89.981,89.981,0,0,1-9.278,4.555l-4.964,1.459c-2.357-9.164-10.066-15.935-19.8-11.791-6.52,2.775-9.828,5.088-12.9,11.888-4.335,12.927,18.667,11.222,27,9.25a35.469,35.469,0,0,0,13.111-5.861l.559-.172a14.179,14.179,0,0,0-1.517,7.172c.454,4.713,5.708,6.473,10.491,6.416a56.209,56.209,0,0,0,9.835-.932c8.078-1.469,16.846-6.8,24.5-12.723C300.337,338.772,301.221,336.656,301.04,334.864Z"/><path class="d" d="M256.261,312.9c-6.1,1.856-8.376,1.625-13.951,1.129-6.72-.6-15.864-2.315-19.724-3.074a2.094,2.094,0,0,1-1.688-2.219c1.347-17.531,9.227-105.694,12.868-133.133l6.3-13.152a111.306,111.306,0,0,0,32.717-4.439l25.726,12.03c4.854,43.933,10.277,102.689,13.615,133.063a3.952,3.952,0,0,1-2.243,4.01c-7.641,3.611-17.119,8-23.266,8.648a25.313,25.313,0,0,1-6.1-.46l-19.152-2.65Z"/><path class="b" d="M240.064,164.453a114.723,114.723,0,0,0,33.249-4.51c2.468-.715,1.418-4.576-1.064-3.857a110.8,110.8,0,0,1-32.185,4.367c-2.575-.031-2.577,3.969,0,4Z"/><path class="b" d="M231.766,175.605c-1.226,9.255-2.183,18.547-3.143,27.832q-1.95,18.871-3.71,37.762-1.764,18.667-3.429,37.344c-.79,8.857-1.574,17.716-2.3,26.579a23.142,23.142,0,0,0-.251,4.232c.433,3.986,5.535,4.012,8.572,4.554,4.044.721,8.1,1.372,12.185,1.85a46.163,46.163,0,0,0,10.986.442,37.369,37.369,0,0,0,6.115-1.369c2.459-.739,1.412-4.6-1.063-3.858a28.616,28.616,0,0,1-10.7,1.289c-3.942-.29-7.856-.789-11.758-1.413q-2.874-.461-5.736-.984a38,38,0,0,1-4.21-.8c-.48-.146-.418-.065-.413-.584,0-.287.045-.58.068-.867q.076-.971.156-1.942c.684-8.427,1.429-16.85,2.178-25.273q1.611-18.12,3.314-36.234,1.751-18.63,3.632-37.247c.983-9.625,1.975-19.254,3.183-28.855q.156-1.232.318-2.463a2.01,2.01,0,0,0-2-2,2.052,2.052,0,0,0-2,2Z"/><path class="b" d="M260.831,314.583l11.694,1.619c2.564.355,5.129.7,7.691,1.065a27.937,27.937,0,0,0,6.162.518,26.022,26.022,0,0,0,4.264-.75c6.892-1.749,13.5-4.949,19.881-8.018a6.2,6.2,0,0,0,3.332-3.643,9.122,9.122,0,0,0,.082-3.964q-.4-3.663-.782-7.326c-1.251-11.915-2.435-23.838-3.619-35.76q-2.084-20.987-4.181-41.973-2.09-20.718-4.312-41.423-.267-2.442-.536-4.884a2.059,2.059,0,0,0-2-2,2.013,2.013,0,0,0-2,2q2.2,19.936,4.2,39.9,2.089,20.568,4.112,41.142,1.809,18.255,3.662,36.506.753,7.308,1.543,14.612c.139,1.269.256,2.387-.994,3.106-1.48.852-3.138,1.489-4.69,2.2-3.184,1.461-6.395,2.873-9.689,4.072a31.316,31.316,0,0,1-8.506,2.225c-2.943.181-6-.552-8.916-.956l-14.189-1.963-1.144-.159a2.07,2.07,0,0,0-2.461,1.4,2.014,2.014,0,0,0,1.4,2.46Z"/><path class="b" d="M254.936,199.566c.869,16.9,1.515,33.805,2.167,50.711q.969,25.07,1.842,50.142c.143,4.078.3,8.157.418,12.236.077,2.568,4.077,2.579,4,0-.315-10.5-.724-20.995-1.105-31.491q-1.008-27.775-2.141-55.545c-.362-8.686-.735-17.371-1.181-26.053-.131-2.562-4.132-2.577-4,0Z"/><path class="b" d="M250.094,335.3c-2.051-7.4-7.867-14.4-16.143-14.26-4.041.069-8.039,1.89-11.461,3.931a20.478,20.478,0,0,0-7.375,7.58c-1.523,2.679-2.742,5.783-1.81,8.887a8.7,8.7,0,0,0,4.7,5.175c5.058,2.454,11.248,2.416,16.73,1.971a56.477,56.477,0,0,0,8.325-1.234,40.7,40.7,0,0,0,13.588-6.062c2.124-1.431.124-4.9-2.019-3.454a36.634,36.634,0,0,1-10.108,4.991,48.65,48.65,0,0,1-6.961,1.466c-4.832.616-10.066.875-14.695-.2A10.011,10.011,0,0,1,218,341.776a3.774,3.774,0,0,1-.933-1.748c-.031-.115-.052-.241-.071-.358.006.036.035.308.014.067a6.594,6.594,0,0,1-.023-.783,4.582,4.582,0,0,1,.218-1.42,16,16,0,0,1,5-7.5,24.169,24.169,0,0,1,8.539-4.473,10.805,10.805,0,0,1,9.758,1.641,16.93,16.93,0,0,1,5.736,9.156c.686,2.477,4.546,1.425,3.857-1.064Z"/><path class="b" d="M291.406,334.216a21.588,21.588,0,0,0-20.829-9.586,17.605,17.605,0,0,0-10.7,5.271,31.893,31.893,0,0,0-3.573,5.075,29.9,29.9,0,0,0-2.8,5.769c-1.23,3.567-1.407,7.816,1.344,10.725,2.273,2.4,5.792,3.281,8.98,3.473a46.049,46.049,0,0,0,24.4-5.761,79.806,79.806,0,0,0,12.49-8.291,7.243,7.243,0,0,0,2.344-5.639,7.979,7.979,0,0,0-3.095-5.816c-1.974-1.62-4.82,1.194-2.828,2.829a4.178,4.178,0,0,1,1.916,3.381c-.138,1.74-1.066,2.352-2.372,3.322a88.53,88.53,0,0,1-9.5,6.225,46.726,46.726,0,0,1-9.267,4.081,43.07,43.07,0,0,1-10.426,1.635c-2.776.13-5.793.216-8.317-1.152-2.32-1.258-2.862-3.4-2.372-5.919.684-3.519,2.739-6.635,4.718-9.554a12.9,12.9,0,0,1,6.848-5.1,17.563,17.563,0,0,1,19.584,7.053,2.058,2.058,0,0,0,2.737.717,2.016,2.016,0,0,0,.717-2.736Z"/><path class="b" d="M253.725,336.543a104.954,104.954,0,0,0,9.755-4.757,2.016,2.016,0,0,0,.718-2.737,2.047,2.047,0,0,0-2.737-.717c-1.476.76-2.93,1.563-4.405,2.326-.729.377-1.463.743-2.206,1.09-.4.187-.807.366-1.212.544-.211.09-.209.089,0,0l-.322.132c-.219.09-.439.177-.66.263a2.049,2.049,0,0,0-1.4,2.46,2.023,2.023,0,0,0,2.461,1.4Z"/><path class="c" d="M275.4,72.9c-.038-.273-.071-.546-.105-.819q-.222-1.82-.445-3.64a35.691,35.691,0,0,0,5.956-6.382s3.052-4.263,1.781-3.43a8.019,8.019,0,0,0,4.379-.691,11.034,11.034,0,0,0,4.394-4.71c1.121-2.018,1.741-5.47.917-7.539a3.806,3.806,0,0,0-3.056-2.324,4.215,4.215,0,0,0-3.072.528l-1.4.907L280.7,42.426c-3.206-1.877-6.536-7.3-7.721-10.406a75.917,75.917,0,0,1-2.6-8.391c-4.706,4.7-11.5,8.109-18.7,9.811a1.117,1.117,0,0,1-1.374-1.213,17.755,17.755,0,0,1,1.026-4.21.246.246,0,0,0-.378-.286c-4.783,3.585-9.943,7.309-14.734,10.3-.523.329-1.152.677-1.553.923l-.963.591.019.216c.355,4.179.526,8.353.769,12.2.42,6.666,2.164,12.759,6.635,16.778a21.576,21.576,0,0,0,10.623,5.468c-.254,1.682-2.19,2.541-3.708,2.97-2.286.841-6.528,1.917-9,2.724A16.043,16.043,0,0,0,246.7,87a26.265,26.265,0,0,0,9.857,2.428c9.861.65,20.308-2.028,27.581-9.478-3-1.233-7.386-2.337-8.254-4.835A11.531,11.531,0,0,1,275.4,72.9Z"/><path class="b" d="M250.05,63.481a9.824,9.824,0,0,0,4.585,1.218,9.691,9.691,0,0,0,2.378-.2,5.574,5.574,0,0,0,.953-.3c.3-.122.6-.252.9-.38.082-.036.166-.069.247-.107-.5.235-.08.038.021,0a2.167,2.167,0,0,0,1.195-.919,2.044,2.044,0,0,0,.2-1.541,2.023,2.023,0,0,0-2.46-1.4c-.287.112-.57.232-.853.353l-.248.106c-.029.012-.437.187-.127.055.276-.117,0,0-.059.022-.077.03-.155.059-.233.086-.133.046-.269.087-.406.121s-.3.063-.449.092c-.3.058.216-.039.217-.028s-.2.02-.216.021a8.348,8.348,0,0,1-.949.024c-.153-.005-.305-.013-.458-.025-.1-.008-.6-.068-.248-.02s-.146-.028-.242-.046c-.166-.032-.331-.067-.495-.108-.281-.071-.554-.16-.827-.256-.317-.111.359.172.146.066-.06-.029-.121-.054-.18-.083-.129-.063-.253-.132-.376-.2a2,2,0,1,0-2.019,3.454Z"/><path class="b" d="M260.163,47.625c-.3-1.371.216-4.426,2.771-4.482,3.347.293,3.223,4.027,1.953,5.684C263.848,50.184,261.086,50.559,260.163,47.625Z"/><path class="b" d="M240.231,46.631c-.272-1.374.217-4.44,2.557-4.507,3.065.279,2.935,4.025,1.765,5.693C243.6,49.182,241.063,49.57,240.231,46.631Z"/><path class="b" d="M249.825,49.956c-.454.688-.9,1.388-1.289,2.116a4.291,4.291,0,0,0-.453,1.057,2.677,2.677,0,0,0,0,1.316,2.587,2.587,0,0,0,.605,1.058,3.426,3.426,0,0,0,1.383.9,4.381,4.381,0,0,0,1.035.189l-.532-.072.134.022a2.14,2.14,0,0,0,1.541-.2,2,2,0,0,0,.718-2.737,1.979,1.979,0,0,0-1.2-.919c-.243-.047-.491-.07-.736-.1l.532.072a1.74,1.74,0,0,1-.433-.108l.478.2a1.508,1.508,0,0,1-.265-.158l.405.312a1.582,1.582,0,0,1-.267-.263l.312.405a.43.43,0,0,1-.045-.088l.2.477a.425.425,0,0,1-.023-.095l.071.532a.856.856,0,0,1,0-.152l-.071.531a1.335,1.335,0,0,1,.074-.263l-.2.478a10.448,10.448,0,0,1,.733-1.311c.241-.4.487-.787.742-1.173a2,2,0,0,0-.718-2.737,2.017,2.017,0,0,0-1.541-.2,2.187,2.187,0,0,0-1.2.919Z"/><path class="b" d="M274.82,71a36.972,36.972,0,0,0,6.1-5.85,32.645,32.645,0,0,0,3.458-4.906,2,2,0,0,0-3.454-2.019,26.229,26.229,0,0,1-1.514,2.363c-.139.2-.278.4-.423.594-.082.11-.166.217-.247.326-.143.192.2-.25-.036.048-.2.256-.4.512-.612.765a35.592,35.592,0,0,1-2.453,2.712q-.679.673-1.4,1.309c-.27.239-.545.474-.822.7-.142.117-.285.234-.429.349-.058.046-.479.376-.187.151a2.2,2.2,0,0,0-.919,1.2,2.045,2.045,0,0,0,.2,1.542A2.021,2.021,0,0,0,274.82,71Z"/><path class="b" d="M284.3,6.6A31.887,31.887,0,0,0,268.531.221a38.144,38.144,0,0,0-15.855,1.645,31.793,31.793,0,0,0-12.51,7.555A30.994,30.994,0,0,0,232.325,23.6a46.457,46.457,0,0,0-.5,18.883,2.015,2.015,0,0,0,2.46,1.4,2.047,2.047,0,0,0,1.4-2.46c-1.559-9.49-.366-20.735,6.337-28.143,6.173-6.822,15.429-9.625,24.447-9.212a28.255,28.255,0,0,1,15.822,5.993,2.012,2.012,0,0,0,2.736-.718A2.048,2.048,0,0,0,284.3,6.6Z"/><path class="b" d="M267.666,70.022c-6.56,2.634-14.09,3.9-20.619.459a18.512,18.512,0,0,1-7.386-6.671,24.115,24.115,0,0,1-2.971-9.63c-.54-4.781-.564-9.623-.963-14.418-.212-2.547-4.214-2.57-4,0,.7,8.43-.061,17.763,4.121,25.436,3.732,6.85,11.463,11.046,19.129,11.37a33.228,33.228,0,0,0,13.752-2.688,2.063,2.063,0,0,0,1.4-2.461,2.014,2.014,0,0,0-2.46-1.4Z"/><path class="b" d="M287.159,45.62a1.855,1.855,0,0,1,1.2-.341,4.269,4.269,0,0,1,.438.023q-.29-.03.13.045c.087.027.8.285.549.164.084.041.7.453.348.168.161.13.289.284.436.427-.489-.478.331.357.211.417q-.219-.54-.063-.131c.041.118.077.237.109.358.02.077.132.8.1.447a10.447,10.447,0,0,1-.007,1.724,1.052,1.052,0,0,1-.044.359c-.053.3-.11.589-.181.88s-.15.57-.24.85c-.023.07-.278.77-.169.507a12.336,12.336,0,0,1-1.336,2.317c-.074.106-.149.21-.226.313q.167-.216-.06.065c-.185.211-.367.422-.564.622a6.71,6.71,0,0,1-1.19.992c-.241.157-.5.28-.744.436-.322.209.421-.129-.015.006-.455.14-.9.264-1.366.364q-.359.057-.067.017-.205.024-.414.036c-.282.017-.561.006-.843,0-.249-.025-.281-.024-.1,0-.139-.023-.276-.051-.411-.086s-.268-.074-.4-.121c.159.072.13.055-.087-.053a2.045,2.045,0,0,0-2.736.718,2.021,2.021,0,0,0,.717,2.736,8.6,8.6,0,0,0,6.836.214,11.384,11.384,0,0,0,5.331-4.555c2.185-3.306,3.714-8.857.831-12.213a6.51,6.51,0,0,0-8-1.165c-2.2,1.323-.2,4.783,2.019,3.454Z"/><path class="b" d="M268.492,24.327a48.52,48.52,0,0,0,3.892,11.153c1.732,3.262,4.087,6.724,7.3,8.673,2.207,1.338,4.219-2.119,2.018-3.454-2.583-1.566-4.562-4.728-5.985-7.46a24.756,24.756,0,0,1-1.589-3.912c-.675-2-1.28-4.017-1.783-6.063-.614-2.5-4.473-1.441-3.857,1.063Z"/><path class="b" d="M268.959,22.223a33.976,33.976,0,0,1-9.5,6.446,40.934,40.934,0,0,1-5.429,2.064q-.815.249-1.638.467-.309.082-.619.16-.84.111.525.96a8.521,8.521,0,0,0,.328-1.716q.177-.733.419-1.449c.392-1.154.43-2.318-.714-3.075a2.307,2.307,0,0,0-2.752.2c-1.8,1.22-3.507,2.6-5.275,3.873-3.464,2.487-6.986,4.883-10.644,7.076-2.206,1.321-.2,4.781,2.019,3.453,2.72-1.63,5.365-3.367,7.967-5.181q2.117-1.474,4.2-3,.946-.69,1.889-1.386.561-.414,1.121-.832c.213-.158.634-.628.839-.671l-1.541-.2.158.12-.991-1.727a8.91,8.91,0,0,1-.552,1.734c-.171.711-.288,1.43-.388,2.154a3.168,3.168,0,0,0,1.673,3.444c1.282.654,2.729.111,4.018-.25,1.362-.382,2.708-.826,4.029-1.333a39.451,39.451,0,0,0,13.685-8.5c1.839-1.808-.99-4.636-2.828-2.829Z"/><path class="b" d="M272.84,68.361c.253,2.063.394,4.184.828,6.218a6.451,6.451,0,0,0,2.585,4.007,16.406,16.406,0,0,0,3.856,1.956c.654.259,1.315.5,1.975.744.293.109.586.218.878.331.141.054.282.109.422.165q.137.054.273.111c-.255-.109-.283-.121-.083-.034a2.056,2.056,0,0,0,2.737-.718,2.023,2.023,0,0,0-.718-2.736c-1.253-.543-2.536-1-3.811-1.484-.305-.116-.608-.236-.911-.357-.506-.2.377.169-.117-.049-.146-.064-.291-.128-.435-.2a12.089,12.089,0,0,1-1.59-.864c-.1-.064-.288-.146-.347-.241l.188.146c-.07-.056-.138-.114-.2-.173-.083-.074-.441-.545-.532-.553.121.011.255.378.034,0-.1-.161-.33-.32-.01.05a3.325,3.325,0,0,1-.332-1.174,20.137,20.137,0,0,1-.328-2.249l-.357-2.906a2.051,2.051,0,0,0-2-2c-.974.043-2.136.888-2,2Z"/><path class="b" d="M239.5,81.854c2.562-.838,5.182-1.482,7.749-2.3,2.536-.808,5.882-1.781,6.438-4.828a2,2,0,1,0-3.857-1.064,2.838,2.838,0,0,0-.093.393c0,.213.137-.3-.025.02-.186.362.151-.091-.014.036a3.1,3.1,0,0,0-.281.281c-.246.25.142-.047-.047.037a3.97,3.97,0,0,0-.352.221c-.122.07-.247.132-.372.2-.165.085-.322.143-.059.038-1,.4-2.048.708-3.074,1.023-2.351.719-4.738,1.324-7.076,2.088a2,2,0,0,0,1.063,3.858Z"/><path class="b" d="M238.529,78c-2.926,1.039-5.892,1.983-8.726,3.258a25.741,25.741,0,0,0-7.081,4.752,2,2,0,0,0,2.829,2.828A18.565,18.565,0,0,1,228.5,86.5a24.922,24.922,0,0,1,3.322-1.787l.368-.162c.59-.261-.17.067.176-.076q.429-.177.862-.345c.635-.247,1.275-.482,1.917-.712,1.479-.529,2.967-1.034,4.448-1.559a2.051,2.051,0,0,0,1.4-2.461,2.018,2.018,0,0,0-2.46-1.4Z"/><path class="b" d="M237.373,81.01c3.385,6.394,10.539,9.449,17.415,10.252a40.363,40.363,0,0,0,19.987-2.694,33.394,33.394,0,0,0,9.862-6.308c1.894-1.751-.94-4.574-2.829-2.828-5.633,5.206-13.163,7.756-20.753,8.052-7.4.289-16.429-1.317-20.229-8.493-1.2-2.276-4.658-.257-3.453,2.019Z"/><path class="b" d="M283.774,81.523a31.131,31.131,0,0,1,8.83,4,37.373,37.373,0,0,1,7.871,6.342,29.762,29.762,0,0,1,5.434,9.4,55.868,55.868,0,0,1,2.961,11.43,111.138,111.138,0,0,1,1.1,13.166c.079,2.135,3.566,2.861,3.928.532l.04-.26-3.928-.531c.15,5.614.019,11.244-.286,16.851a105.483,105.483,0,0,1-2.13,17.975,29.242,29.242,0,0,1-4.067,9.375c-1.395,2.172,2.066,4.18,3.454,2.019a32.082,32.082,0,0,0,4.123-8.934,66.281,66.281,0,0,0,1.593-8.722,181.305,181.305,0,0,0,1.321-19.693c.059-2.956.071-5.915-.008-8.871-.057-2.147-3.569-2.849-3.929-.532l-.04.26,3.929.531c-.312-8.38-1.017-16.943-3.914-24.88a37.765,37.765,0,0,0-5.945-11.012A36.858,36.858,0,0,0,296.057,83a36.171,36.171,0,0,0-11.22-5.33c-2.5-.62-3.564,3.237-1.063,3.857Z"/><path class="c" d="M255.547,178.3c-.4,8.8,2.99,13.75,1.079,22.352-.795,3.576-4.947,24.267-6.567,33.7a6.084,6.084,0,0,0,1.4,5.189c1.625,1.917,4.5,3.377,6.049,4.126a88.428,88.428,0,0,0,23.325,7.4c1.6.272,3.209.5,4.827.626a39.41,39.41,0,0,0,24.691-6.417A6.484,6.484,0,0,0,312.692,243a7.28,7.28,0,0,0,.528-3.219,55.767,55.767,0,0,0,14.067-2.191,4.492,4.492,0,0,0,2.651-1.542,4.682,4.682,0,0,0,.265-3.369l-8.491-49.3c-1.379-8.01-2.759-16.021-4.364-23.988a4.608,4.608,0,0,0-3.188-4.192L303.629,150l-40.687-3.675Z"/><path class="b" d="M253.547,178.3c-.244,6.384,2.092,12.561,1.595,18.926-.286,3.674-1.4,7.423-2.122,11.031q-1.554,7.731-3.036,15.474-.679,3.567-1.332,7.138c-.487,2.692-1.148,5.364.025,7.981,1.315,2.931,4.323,4.784,7.084,6.18a83.922,83.922,0,0,0,9.767,4.118c7.049,2.5,14.745,4.486,22.259,4.653a41.65,41.65,0,0,0,20.28-4.839c2.763-1.461,6.2-3.233,6.927-6.552a27.847,27.847,0,0,0,.269-5.5q.042-2.978.075-5.954.3-27.294-.221-54.586c-.048-2.571-4.048-2.58-4,0q.436,23.071.294,46.15-.036,5.706-.108,11.413c-.025,1.985-.041,3.97-.085,5.954-.034,1.568-.245,2.52-1.571,3.457a36.514,36.514,0,0,1-18.031,6.353c-6.953.534-13.988-1-20.621-2.97a84.465,84.465,0,0,1-10.376-3.814c-2.5-1.115-5.285-2.287-7.25-4.25-1.9-1.9-1.333-4.1-.907-6.464q.611-3.387,1.258-6.766,1.425-7.5,2.929-14.975c.8-3.969,1.856-7.971,2.364-11.989.858-6.792-1.726-13.373-1.466-20.168.1-2.574-3.9-2.57-4,0Z"/><path class="b" d="M302.62,151.725l9.653,4.768a8.424,8.424,0,0,1,.995.5c-.3-.2-.026,0,.032.051a10.615,10.615,0,0,1,1.083,1.218c.251.328.486.674.7,1.025a4.963,4.963,0,0,1,.3.53c.071.144.068.131-.008-.037a4.66,4.66,0,0,1,.134.618c1.453,6.917,2.611,13.9,3.813,20.867q3.683,21.332,7.349,42.666l1.009,5.857q.252,1.464.5,2.928a4.272,4.272,0,0,1,.13,2.111c-.217.449-.784.586-1.229.727-.845.268-1.708.487-2.568.7a57.945,57.945,0,0,1-5.9,1.118,2.011,2.011,0,0,0-1.4,2.46,2.053,2.053,0,0,0,2.46,1.4c1.832-.254,3.65-.583,5.45-1.01a17.966,17.966,0,0,0,4.8-1.542c3.464-1.992,2.285-6.016,1.733-9.219l-3.993-23.184c-2.613-15.174-5.043-30.4-8.019-45.5a9.761,9.761,0,0,0-1.423-3.969,13.75,13.75,0,0,0-2.41-2.853c-1.413-1.179-3.4-1.832-5.042-2.645l-6.143-3.034c-2.3-1.136-4.33,2.313-2.019,3.454Z"/><path class="b" d="M283.02,126.308c.68-2.8,4.315-2.85,6.122-1.108a4.679,4.679,0,0,1-.079,6.515c-1.182,1.157-2.589,1.825-2.969,3.6a16.309,16.309,0,0,0-.164,3.781c.064,2.329.3,4.656.324,6.985.029,2.573,4.029,2.579,4,0-.032-2.785-.38-5.562-.339-8.35a3.215,3.215,0,0,1,.239-1.752c.48-.706,1.471-1.1,2.048-1.764a9.055,9.055,0,0,0,2.131-4.9,8.3,8.3,0,0,0-5.445-8.905c-3.948-1.356-8.706.639-9.726,4.834-.607,2.5,3.249,3.567,3.858,1.063Z"/><path class="b" d="M279.994,146.6a24.918,24.918,0,0,0,3.525.9,1.526,1.526,0,0,0,.8.036,1.5,1.5,0,0,0,.744-.238,2,2,0,0,0,.717-2.736,1.957,1.957,0,0,0-1.195-.919,24.9,24.9,0,0,1-3.526-.9,2,2,0,0,0-2.259,2.938,2.2,2.2,0,0,0,1.2.919Z"/><path class="c" d="M290.264,137.665a28.564,28.564,0,0,0-4.992,5.838,3.608,3.608,0,0,0-.639,2.637c.9,2.921,3.335,3.4,5.927,2.2.683,2.533,3.4,3.664,5.753,4.183a.559.559,0,0,1,.383.212,4.089,4.089,0,0,0,2.478,3.092A6.3,6.3,0,0,0,308,151.348a8.252,8.252,0,0,0-2.209-8.143,29.17,29.17,0,0,1-3.067-4.1c-2.36-2.673-6.3-4.763-9.591-3.25A13.013,13.013,0,0,0,290.264,137.665Z"/><path class="b" d="M288.85,136.251a32.082,32.082,0,0,0-4.238,4.706c-1.316,1.78-2.513,3.756-1.8,6.041a5.628,5.628,0,0,0,3.615,3.717,7.36,7.36,0,0,0,5.139-.645l-2.938-1.195c1.1,3.539,4.174,4.625,7.369,5.65l-.882-.515.164.143-.514-.883c.674,3.492,4.438,5.472,7.789,5.13a8.545,8.545,0,0,0,7.2-5.906,10.56,10.56,0,0,0-2.039-10.139c-.492-.578-1.057-1.075-1.508-1.688-.554-.754-1.035-1.56-1.581-2.319a12.765,12.765,0,0,0-4.064-3.547,9.92,9.92,0,0,0-5.8-1.407,11.238,11.238,0,0,0-5.918,2.857c-1.964,1.67.877,4.488,2.828,2.829a6.368,6.368,0,0,1,3.927-1.729,7.075,7.075,0,0,1,3.858,1.479,11.764,11.764,0,0,1,2.883,3.262c.9,1.312,2.146,2.378,2.986,3.708,1.345,2.131,1.366,5.45-.475,7.325-1.438,1.464-4.4,2-5.827.156-.514-.664-.418-1.487-1.084-2.1a6.145,6.145,0,0,0-2.447-.947,4.208,4.208,0,0,1-3.011-2.423,2.038,2.038,0,0,0-2.938-1.2,2.951,2.951,0,0,1-2.051.247,1.478,1.478,0,0,1-.822-1.75,10.7,10.7,0,0,1,2-2.912,29.917,29.917,0,0,1,3-3.121C293.588,137.345,290.753,134.523,288.85,136.251Z"/><path class="b" d="M262.41,144.4a90.424,90.424,0,0,0-12.609,4.856c-1.917.909-3.6,1.973-4.239,4.122a41,41,0,0,0-.916,6.309l-2.9,22.146-1.816,13.851a2.01,2.01,0,0,0,2,2,2.052,2.052,0,0,0,2-2l2.829-21.569,1.328-10.126.774-5.9c.2-1.508.017-3.735,1.455-4.616a40.24,40.24,0,0,1,6.237-2.816c2.274-.9,4.585-1.691,6.925-2.4,2.458-.742,1.411-4.6-1.063-3.857Z"/><path class="e" d="M256.692,197.043a6.936,6.936,0,0,1-1.595,5.911c-1.851,2.183-5.126,3.846-6.89,4.7a100.7,100.7,0,0,1-26.571,8.431c-1.823.31-3.655.569-5.5.713a44.9,44.9,0,0,1-28.127-7.31,7.388,7.388,0,0,1-2.666-2.594,8.023,8.023,0,0,1-.6-3.546l-6.764-.663a63.756,63.756,0,0,1-9.262-1.955,5.107,5.107,0,0,1-3.019-1.755c-.723-1.1-.526-2.542-.3-3.839l9.672-56.154c1.572-9.124,3.144-18.25,4.972-27.326a8.476,8.476,0,0,1,1.412-2.934,7.07,7.07,0,0,1,2.219-1.84l12-5.925,37.049-5.832,6.393.219c6.486-.109,12.372,4.31,15.821,9.8s4.91,11.969,6.315,18.3l13.5,60.876a3.552,3.552,0,0,1-1.873,4.715l-9.817,6.675c-.815.555-2.255.908-2.5-.047Z"/><path class="c" d="M231.187,100.171a7.353,7.353,0,0,0,.851-1.128c3.756-6.233-5.352-7.9-9.529-5.636a2.77,2.77,0,0,0-1.188.967,3.752,3.752,0,0,0-.7,1.913,11.809,11.809,0,0,0,.725,4.029C222.829,105.243,228.486,103.144,231.187,100.171Z"/><path class="b" d="M232.6,101.585c2.159-2.436,3.351-6.011.959-8.713-1.691-1.909-4.668-2.5-7.1-2.423a11.442,11.442,0,0,0-3.754.693,8.1,8.1,0,0,0-2.374,1.335,5.413,5.413,0,0,0-1.575,2.781,9.348,9.348,0,0,0,.146,3.708,13.254,13.254,0,0,0,.976,3.053,5.535,5.535,0,0,0,3.548,3.038c3.3.884,6.986-1.1,9.175-3.472a2,2,0,1,0-2.828-2.828c-.183.2-.371.389-.569.572-.082.076-.533.564-.632.54,0,0,.406-.294.095-.078-.054.037-.106.076-.16.113-.106.075-.215.148-.324.22q-.384.248-.788.463c-.114.061-.23.119-.347.176-.074.036-.464.18-.171.084s-.147.053-.235.084c-.137.049-.276.095-.416.136-.255.075-.511.127-.771.182-.358.077.424-.027.063-.008-.134.007-.268.02-.4.022s-.265-.013-.4-.01c-.346.007.423.1.091.018-.107-.026-.215-.042-.321-.071-.052-.014-.1-.033-.156-.046-.353-.086.074-.022.123.069-.013-.025-.583-.312-.57-.323.047-.035.388.35.015-.01-.056-.054-.212-.289-.279-.3.022,0,.222.339.128.16-.028-.054-.072-.105-.1-.157-.083-.131-.154-.267-.226-.4a.7.7,0,0,1-.088-.188s.117.374.067.144a5.466,5.466,0,0,0-.19-.553,12.788,12.788,0,0,1-.366-1.285c-.046-.2-.085-.4-.12-.606-.017-.1-.035-.2-.049-.3.037.282,0-.076-.009-.184-.017-.2-.028-.411-.034-.616,0-.1,0-.206-.006-.309,0-.054.046-.291,0-.064-.053.252.023-.043.034-.072.042-.113.071-.228.115-.34-.13.329.085-.124.148-.226.041-.068.09-.132.129-.2.064-.111.116-.094-.007-.011-.279.189.1.008.053-.015.017.008-.414.258.007.008.237-.141.481-.263.726-.388.376-.192-.362.127-.058.021.1-.035.194-.074.292-.108.235-.082.475-.152.716-.212q.32-.081.644-.138a1.363,1.363,0,0,0,.33-.054c-.261.137-.419.046-.2.028.075-.006.15-.016.225-.023a11.029,11.029,0,0,1,1.477-.039c.245.009.488.032.733.054.4.035-.212-.04-.088-.014s.255.041.382.066a9.541,9.541,0,0,1,1.386.39c.357.127-.205-.1-.1-.044.086.048.181.085.269.13.2.1.388.225.579.347.335.213-.273-.26-.072-.059.085.086.182.16.266.247s.134.162.208.232c.123.114-.178-.231-.178-.23.006.055.094.134.121.183.048.088.094.182.146.268.139.227-.137-.477-.054-.11a2.276,2.276,0,0,0,.089.348c.065.157-.036-.306-.036-.3a1.506,1.506,0,0,0,.016.188c0,.114.007.226,0,.34,0,.067-.015.135-.015.2,0,.219.1-.436.028-.22-.088.27-.142.556-.23.828-.1.3.181-.354-.025.054-.073.145-.144.29-.223.432-.111.2-.232.391-.358.58,0,0-.192.259-.084.121.09-.117-.249.282-.243.276a2,2,0,0,0,2.828,2.828Z"/><path class="b" d="M248.44,133.192a50.123,50.123,0,0,1-.885,10.485,48.909,48.909,0,0,0-1,9.922c.151,4.271,1.361,8.551,2.207,12.73q1.641,8.106,3.21,16.227.819,4.239,1.612,8.482a55.388,55.388,0,0,1,1.215,7.025c.181,3.45-3.08,5.466-5.748,6.917a75.513,75.513,0,0,1-10.034,4.4,84.85,84.85,0,0,1-23.523,5.464,42.951,42.951,0,0,1-21.839-4.4,40.286,40.286,0,0,1-4.95-2.9,4.142,4.142,0,0,1-1.954-3.8c-.125-4.373-.128-8.754-.171-13.128q-.258-26.572.165-53.145.051-3.243.113-6.486c.049-2.575-3.951-2.575-4,0q-.524,27.692-.315,55.389.054,6.861.151,13.722a26.938,26.938,0,0,0,.375,6.385,7.985,7.985,0,0,0,3.462,4.406,46.053,46.053,0,0,0,22.108,7.845c8.286.77,16.763-.988,24.692-3.286a104.29,104.29,0,0,0,12.125-4.369,40.145,40.145,0,0,0,9.293-5.063,9.779,9.779,0,0,0,3.831-9.734c-.415-2.507-.894-5.006-1.362-7.5q-1.662-8.874-3.437-17.727c-.826-4.151-1.641-8.307-2.536-12.444a29.183,29.183,0,0,1-.518-9.357c.357-3.389,1.142-6.719,1.508-10.109a40.546,40.546,0,0,0,.2-5.954c-.1-2.565-4.1-2.578-4,0Z"/><path class="b" d="M194.659,99.229c-3.851,1.9-7.706,3.794-11.552,5.7a9.913,9.913,0,0,0-5.238,7.405c-1.677,8.433-3.142,16.905-4.6,25.377q-4.369,25.365-8.738,50.73c-.4,2.314-.852,4.625-1.184,6.949-.293,2.049-.119,4.184,1.53,5.637,1.519,1.338,3.689,1.766,5.6,2.243a65.587,65.587,0,0,0,6.975,1.337,2.069,2.069,0,0,0,2.461-1.4,2.015,2.015,0,0,0-1.4-2.46c-1.878-.259-3.744-.588-5.593-1.007a18.109,18.109,0,0,1-5.04-1.462c-1.2-.708-.577-2.487-.385-3.6l1.061-6.158,4.115-23.89c2.705-15.7,5.259-31.442,8.249-47.093.6-3.119.62-7.226,3.762-8.933,3.908-2.124,8.008-3.955,12-5.925,2.308-1.14.284-4.591-2.019-3.454Z"/><path class="b" d="M207.786,80.334c-.123-2.847,3.294-3.992,5.529-2.817a4.684,4.684,0,0,1,1.907,6.067c-.671,1.457-1.916,2.364-2,4.1a12.229,12.229,0,0,0,.886,4.009c.712,2.24,1.592,4.427,2.271,6.677.741,2.458,4.6,1.411,3.857-1.063-.626-2.075-1.427-4.1-2.1-6.155-.16-.488-.317-.977-.46-1.47a5.86,5.86,0,0,1-.457-1.8A3.251,3.251,0,0,1,218,86.643a7.652,7.652,0,0,0,1.058-1.907,9.093,9.093,0,0,0-.809-8.027,8.294,8.294,0,0,0-7.974-3.606c-3.613.542-6.653,3.449-6.489,7.231.112,2.564,4.112,2.578,4,0Z"/><path class="b" d="M219.223,95.441a24.762,24.762,0,0,1-3.526.9,2.01,2.01,0,0,0-1.195.919,2.04,2.04,0,0,0-.2,1.541A2.017,2.017,0,0,0,215.22,100l.477.2a2.022,2.022,0,0,0,1.064,0,24.762,24.762,0,0,0,3.526-.9,2.121,2.121,0,0,0,1.195-.919,2,2,0,0,0-.718-2.737,2.009,2.009,0,0,0-1.541-.2Z"/><path class="c" d="M210.016,90.363a28.5,28.5,0,0,1,4.992,5.837,3.6,3.6,0,0,1,.639,2.638c-.9,2.921-3.335,3.4-5.927,2.2-.683,2.533-3.4,3.664-5.753,4.182a.557.557,0,0,0-.383.213,4.089,4.089,0,0,1-2.477,3.092,6.3,6.3,0,0,1-8.827-4.483,8.25,8.25,0,0,1,2.208-8.143,29.035,29.035,0,0,0,3.067-4.1c2.36-2.673,6.3-4.763,9.592-3.249A12.992,12.992,0,0,1,210.016,90.363Z"/><path class="b" d="M208.6,91.777a30.127,30.127,0,0,1,2.884,2.976A11.331,11.331,0,0,1,213.6,97.81a1.478,1.478,0,0,1-.827,1.755,3.016,3.016,0,0,1-2.046-.251,2.038,2.038,0,0,0-2.938,1.2c-.924,2.982-5.339,1.764-6.169,4.565-.7,2.346-3.807,2.551-5.587,1.278-2.08-1.488-2.544-4.69-1.584-6.955.6-1.416,1.839-2.385,2.749-3.587a25.07,25.07,0,0,1,2.626-3.47,8.28,8.28,0,0,1,4.272-2.254,5.961,5.961,0,0,1,4.5,1.691c1.951,1.658,4.793-1.158,2.829-2.829-3.012-2.56-6.6-3.674-10.364-2.1a13.767,13.767,0,0,0-4.45,3.032c-1.226,1.241-1.923,2.886-3.1,4.163a12.982,12.982,0,0,0-2.979,4.449,10.672,10.672,0,0,0-.33,5.339,8.661,8.661,0,0,0,6.129,7.024c3.682,1.007,8.4-.85,9.176-4.888l-.515.883.165-.142-.883.514c3.2-1.025,6.272-2.11,7.369-5.65l-2.938,1.2a7.366,7.366,0,0,0,5.139.645,5.632,5.632,0,0,0,3.615-3.717c.716-2.286-.48-4.261-1.8-6.041a32.083,32.083,0,0,0-4.237-4.707C209.528,87.221,206.691,90.042,208.6,91.777Z"/><path class="b" d="M258.623,196.2c.895,2.128,2.975,2.474,4.947,1.518a24.746,24.746,0,0,0,2.95-1.945l3.272-2.225c1.909-1.3,4.293-2.485,5.867-4.2,1.762-1.916,1.313-4.218.8-6.533l-6.912-31.168c-2.28-10.283-4.513-20.577-6.845-30.849-1.946-8.576-4.682-17.571-11.9-23.2a19.534,19.534,0,0,0-11.8-4.26c-2.095-.052-4.19-.143-6.285-.215-2.575-.089-2.572,3.911,0,4,4.209.144,8.812-.247,12.662,1.718,7.067,3.607,10.372,11.09,12.332,18.382,2.388,8.884,4.1,17.989,6.088,26.97l6.21,28,1.728,7.792.864,3.9c.186.837.714,2.026.106,2.764a12.571,12.571,0,0,1-2.684,1.918l-3.272,2.225-3.272,2.225a17.032,17.032,0,0,1-1.55,1.046c-.717.379-.338-.118.133.422l.514.882-.1-.228a2.067,2.067,0,0,0-2.46-1.4,2.012,2.012,0,0,0-1.4,2.46Z"/><path class="b" d="M23.9,155.066q-1.185,9.031-2.349,18.066-2.646,20.349-5.3,40.7-3.241,24.862-6.5,49.723Q6.8,286.126,3.811,308.7q-.6,4.488-1.195,8.976-.265,2-.534,3.995-.063.473-.127.943l-.062.463c.073-.538,0-.019-.01.077l-.237,1.76c-.463,3.429-.923,6.858-1.413,10.282q-.1.7-.2,1.393a2.035,2.035,0,0,0,1.929,2.532H37.515c2.573,0,2.578-4,0-4H1.959l1.929,2.531c1.2-8.024,2.211-16.08,3.281-24.122q2.9-21.77,5.742-43.546,3.288-25.074,6.555-50.15,2.776-21.285,5.543-42.57,1.407-10.82,2.813-21.639c.024-.185.049-.37.073-.555a2.01,2.01,0,0,0-2-2,2.051,2.051,0,0,0-2,2Z"/><path class="c" d="M149.848,337.117c-2.936-27.253-29.578-312.976-30.205-319.626-5.568,0-76.9.007-101.468.007C20.7,43.1,46.327,317.188,48.15,337.117h101.7"/><path class="b" d="M151.848,337.117c-.533-4.954-1.007-9.914-1.492-14.872q-1.3-13.323-2.569-26.651-1.694-17.713-3.37-35.429-1.951-20.6-3.893-41.207-2.072-21.992-4.138-43.984-2.055-21.879-4.106-43.76-1.9-20.266-3.8-40.535-1.605-17.154-3.208-34.309-1.173-12.541-2.344-25.083-.6-6.429-1.2-12.856c-.029-.313-.059-.626-.088-.94a2.046,2.046,0,0,0-2-2q-14.985.008-29.971,0l-49.759,0H18.175a2.012,2.012,0,0,0-2,2q.695,7.055,1.353,14.113,1.217,12.807,2.422,25.616,1.61,17.055,3.211,34.11,1.874,19.944,3.744,39.887,2.011,21.434,4.019,42.867,2.024,21.608,4.046,43.216,1.89,20.21,3.779,40.419,1.637,17.5,3.269,34.994,1.249,13.387,2.5,26.774.733,7.878,1.463,15.756.087.933.172,1.867a2.045,2.045,0,0,0,2,2q14.99,0,29.98,0h71.718c2.573,0,2.578-4,0-4H48.15l2,2q-.577-6.309-1.169-12.616Q47.844,312.28,46.7,300.062,45.152,283.432,43.6,266.8q-1.839-19.68-3.681-39.362-1.995-21.331-3.993-42.665-2.03-21.669-4.061-43.34Q29.947,121,28.028,100.568,26.348,82.687,24.664,64.8,23.352,50.87,22.033,36.936,21.22,28.348,20.4,19.763q-.111-1.133-.221-2.265l-2,2,43.548,0,45.947,0q5.986,0,11.973,0l-2-2q.444,4.713.881,9.427L120.615,49.3l3.024,32.341q1.838,19.647,3.679,39.3,2.025,21.626,4.056,43.251,2.075,22.1,4.155,44.206,1.986,21.08,3.978,42.159,1.756,18.556,3.523,37.111,1.386,14.534,2.79,29.064c.582,6,1.162,12.012,1.779,18.014q.122,1.187.249,2.373c.272,2.532,4.275,2.56,4,0Z"/></svg>